<svg xmlns="http://www.w3.org/2000/svg" width="760" height="462" viewBox="0 0 760 462" fill="none">
<path d="M23.9255 182.401C26.6238 153.507 29.9452 124.148 40.5297 97.715C45.8219 84.4985 52.9324 72.1331 62.0881 62.0281C71.2437 51.923 82.4974 44.1314 94.8303 40.4767C110.044 35.9683 126.459 37.9288 141.067 44.5478C155.675 51.1667 168.532 62.2701 179.128 75.5087C196.568 97.2978 207.956 124.641 215.505 152.856C223.054 181.07 226.973 210.35 231.093 239.472C235.213 268.594 239.592 297.829 248.005 325.724C256.419 353.618 269.111 380.338 287.849 400.678C302.149 416.2 319.863 427.733 339.022 433.171C358.181 438.61 378.752 437.851 397.358 430.32C414.442 423.405 429.608 410.952 441.751 395.604C453.895 380.256 463.096 362.071 469.891 342.907C483.481 304.58 487.497 262.878 491.925 221.847C496.352 180.815 501.515 139.097 517.102 101.771C524.895 83.1079 535.298 65.718 548.605 51.6798C561.912 37.6417 578.202 27.0388 595.891 22.5115C620.505 16.212 646.97 22.0889 668.806 36.492C690.641 50.8949 707.945 73.4055 719.521 98.9609C742.672 150.072 742.938 210.738 736.125 267.736C731.314 307.988 722.876 348.732 703.11 382.532C693.227 399.432 680.55 414.361 665.41 425.066C650.27 435.771 632.614 442.135 614.799 441.998C595.306 441.847 576.148 433.906 560.194 421.134C544.24 408.363 531.397 390.926 521.729 371.626C502.394 333.027 495.773 288.046 490.468 244.008C485.163 199.97 480.666 155.019 464.885 114.372C456.994 94.049 446.263 74.9833 432.206 59.5843C418.15 44.1853 400.661 32.559 381.601 27.9011C358.296 22.2057 333.432 27.2306 312.293 39.7865C291.155 52.3425 273.65 72.1064 260.702 94.9223C234.805 140.554 227.25 196.441 224.035 250.669C222.211 281.421 221.538 312.599 214.196 342.263C210.525 357.095 205.17 371.473 197.527 384.184C189.884 396.895 179.892 407.91 168.003 415.242C156.652 422.241 143.723 425.765 130.818 425.822C117.913 425.88 105.047 422.51 93.2904 416.443C69.7766 404.31 51.1468 381.616 39.3021 355.47C27.4575 329.325 22.0362 299.868 20.5018 270.493C18.9674 241.117 21.1927 211.663 23.9255 182.401Z" stroke="#ADADAD" stroke-width="40"/>
</svg>